<svg xmlns="http://www.w3.org/2000/svg" version="1.1" xmlns:xlink="http://www.w3.org/1999/xlink" xmlns:svgjs="http://svgjs.dev/svgjs" width="1000" height="1000" viewBox="0 0 1000 1000"><rect width="1000" height="1000" fill="#ffffff"></rect><g transform="matrix(0.7,0,0,0.7,152.07947158179235,257.7879442870827)"><svg viewBox="0 0 81 56" data-background-color="#6936f5" preserveAspectRatio="xMidYMid meet" height="691" width="1000" xmlns="http://www.w3.org/2000/svg" xmlns:xlink="http://www.w3.org/1999/xlink"><g id="tight-bounds" transform="matrix(1,0,0,1,-0.2406245110043983,0.041918572952027944)"><svg viewBox="0 0 81.4812490797546 55.91616470196351" height="55.91616470196351" width="81.4812490797546"><g><svg viewBox="0 0 81.4812490797546 55.91616470196351" height="55.91616470196351" width="81.4812490797546"><g><svg viewBox="0 0 81.4812490797546 55.91616470196351" height="55.91616470196351" width="81.4812490797546"><g id="textblocktransform"><svg viewBox="0 0 81.4812490797546 55.91616470196351" height="55.91616470196351" width="81.4812490797546" id="textblock"><g><svg viewBox="0 0 81.4812490797546 39.4792" height="39.4792" width="81.4812490797546"><g><svg><g></g><g></g></svg></g><g><svg><g><svg></svg></g><g></g></svg></g><g id="text-0"><svg viewBox="0 0 81.4812490797546 39.4792" height="39.4792" width="81.4812490797546"><g transform="matrix(1,0,0,1,0,0)"><svg width="29.5488490797546" viewBox="3.700000047683716 -32.599998474121094 24.399999618530273 32.599998474121094" height="39.4792" data-palette-color="#ffffff"><path d="M15.6 0L3.7 0 3.7-32.6 14.65-32.6Q17.2-32.6 19.38-32.23 21.55-31.85 23.15-30.9 24.75-29.95 25.68-28.4 26.6-26.85 26.6-24.5L26.6-24.5Q26.6-23.4 26.28-22.3 25.95-21.2 25.25-20.25 24.55-19.3 23.5-18.55 22.45-17.8 21-17.45L21-17.45 21-17.25Q24.5-16.6 26.3-14.75 28.1-12.9 28.1-9.6L28.1-9.6Q28.1-7.1 27.15-5.3 26.2-3.5 24.5-2.33 22.8-1.15 20.53-0.58 18.25 0 15.6 0L15.6 0ZM11.05-26.85L11.05-19.5 14.3-19.5Q17-19.5 18.2-20.55 19.4-21.6 19.4-23.5L19.4-23.5Q19.4-25.3 18.18-26.08 16.95-26.85 14.35-26.85L14.35-26.85 11.05-26.85ZM11.05-14.2L11.05-5.75 15-5.75Q20.9-5.75 20.9-10.15L20.9-10.15Q20.9-12.3 19.48-13.25 18.05-14.2 15-14.2L15-14.2 11.05-14.2Z" opacity="1" transform="matrix(1,0,0,1,0,0)" fill="#000000" class="wordmark-text-0" data-fill-palette-color="primary"></path></svg></g><g><svg xmlns="http://www.w3.org/2000/svg" xmlns:xlink="http://www.w3.org/1999/xlink" version="1.1" baseProfile="tiny" x="42.0020490797546" y="0" viewBox="0 0 100 100" xml:space="preserve" height="39.4792" width="39.4792" class="icon-s-0" data-fill-palette-color="accent" id="s-0"><path d="M100 52.993v-6.004H53.466v-3.947h45.905c0 0-3.666-37.641-41.991-42.47v34.642h31.661c0 0-5.333-14.49-13.331-17.821v11.992H63.546V8.566c0 0 22.161 3.165 29.327 29.313l-39.407-0.232V0h-6.005v37.611L8.058 37.379c0 0 5.331-23.317 29.826-29.812l-0.333 21.818H25.554V17.061c0 0-9.998 4.996-13.997 18.154H43.05V0.739c0 0-37.326 5.496-42.491 42.303h46.902v3.947H0v6.004h47.461v4.537H0.642c5.166 36.806 42.492 42.302 42.492 42.302V65.357H11.64c3.999 13.158 13.997 18.154 13.997 18.154V71.187h11.998l0.333 21.818C13.473 86.51 8.141 63.192 8.141 63.192l39.32-0.231v36.988h6.005V62.925l39.49-0.231c-7.165 26.147-29.327 29.313-29.327 29.313V71.187h12.165v11.991c7.998-3.33 13.33-17.819 13.33-17.819H57.463V100c38.326-4.829 41.992-42.47 41.992-42.47H53.466v-4.537H100z" fill="#000000" data-fill-palette-color="accent"></path></svg></g></svg></g></svg></g><g transform="matrix(1,0,0,1,15.56291857423313,48.7992916192)"><svg viewBox="0 0 50.355411931288344 7.116873082763515" height="7.116873082763515" width="50.355411931288344"><g transform="matrix(1,0,0,1,0,0)"><svg width="50.355411931288344" viewBox="2.5 -35 267.07000732421875 37.75" height="7.116873082763515" data-palette-color="#ffffff"><path d="M23.55-23.25Q23.3-22.75 21.95-20.5L21.95-20.5Q23.2-19.75 23.7-19.55L23.7-19.55Q26.35-18.55 27.68-16.53 29-14.5 29-12.05L29-12.05Q29-9.65 27.75-7.3L27.75-7.3Q24.65-1.55 17.75 1.9L17.75 1.9Q16.05 2.75 14.4 2.75L14.4 2.75Q12 2.75 9.95 1.05L9.95 1.05Q9.15 0.4 8.05-0.4L8.05-0.4Q7.95-0.1 7.83 0.33 7.7 0.75 7.55 0.95L7.55 0.95Q6.95 1.85 6.05 1.85L6.05 1.85Q5.25 1.85 4.6 1.2L4.6 1.2Q2.8-0.45 2.8-2.55L2.8-2.55Q2.8-4.15 2.75-5.35 2.7-6.55 2.65-7.35L2.65-7.35Q2.6-8.35 2.55-9.85 2.5-11.35 2.5-13.35L2.5-13.35Q2.5-17.15 2.9-20.15L2.9-20.15Q3.45-24.55 5-28.4L5-28.4Q6.2-31.3 8.58-32.95 10.95-34.6 14.2-34.9L14.2-34.9Q15.7-35 16.5-35L16.5-35Q20.2-35 22.7-33.4L22.7-33.4Q24-32.6 24.73-31.3 25.45-30 25.45-28.5L25.45-28.5Q25.45-27.25 24.9-26L24.9-26 24.4-25Q24.05-24.2 23.55-23.25L23.55-23.25ZM19.6-27.4Q19.85-28.05 20.05-29.55L20.05-29.55 20.2-30.65Q18.7-31.3 17.35-31.3L17.35-31.3Q16.2-31.3 15.2-30.95L15.2-30.95Q13.05-30.25 11.63-28.83 10.2-27.4 9.38-25.7 8.55-24 7.75-21.5L7.75-21.5Q7.15-19.55 7.15-17.15L7.15-17.15Q7.15-15.85 7.35-13.35L7.35-13.35Q7.45-12.6 7.55-10.9L7.55-10.9Q7.6-9.55 8.1-5.35L8.1-5.35 8.3-3.7Q8.6-3.6 9.3-3.5L9.3-3.5Q10.25-3.4 10.75-3.1L10.75-3.1Q11.2-2.85 11.65-2.27 12.1-1.7 12.35-1.4L12.35-1.4Q15.35-2 17.48-3.85 19.6-5.7 21.65-8.65L21.65-8.65Q23.2-11.05 23.6-12.95L23.6-12.95Q23.75-13.7 23.75-14.3L23.75-14.3Q23.75-15.65 23.03-16.35 22.3-17.05 21.05-17.05L21.05-17.05Q20.3-17.05 19.65-16.85L19.65-16.85Q17.4-16.2 15.05-14L15.05-14Q13.85-12.95 12.65-12.95L12.65-12.95Q11.9-12.95 11.1-13.4L11.1-13.4Q10.15-13.95 9.5-14.6 8.85-15.25 8.4-16.3L8.4-16.3 9.55-17.1Q11.35-18.4 12.3-18.95L12.3-18.95Q17.15-21.55 19.6-27.4L19.6-27.4ZM44.95-3.35Q43.4-2.4 41.4-2.4L41.4-2.4Q39.2-2.4 37.17-3.53 35.15-4.65 33.95-6.75 32.75-8.85 32.95-11.55L32.95-11.55 33.2-12.75Q33.5-14.55 33.7-15.4L33.7-15.4Q34.15-17.25 35.5-18 36.85-18.75 39.1-19.2L39.1-19.2Q40.55-19.5 41.95-19.5L41.95-19.5Q46.35-19.5 49.35-16.55L49.35-16.55Q50.95-14.95 50.95-12.65L50.95-12.65Q50.95-10.4 49.3-7.8L49.3-7.8Q47.4-4.85 44.95-3.35L44.95-3.35ZM40.75-16.95Q39.95-15 39.05-12.1L39.05-12.1 38.55-10.6 38.9-10.45Q38.9-10.1 38.92-9.38 38.95-8.65 39.1-8.15L39.1-8.15Q39.65-6.6 40.35-6.25L40.35-6.25Q40.65-6.1 41.22-6.4 41.8-6.7 42.25-7.1L42.25-7.1Q42.95-7.7 44.5-9.6L44.5-9.6Q45.65-10.9 45.65-12.7L45.65-12.7Q45.65-14.25 44.77-15.5 43.9-16.75 42.35-17.2L42.35-17.2Q42.2-17.25 41.8-17.25L41.8-17.25Q40.85-17.25 40.75-16.95L40.75-16.95ZM56.89 1.1Q52.69 1.1 51.54-2.5L51.54-2.5Q51.94-2.5 52.62-2.48 53.29-2.45 53.74-2.35L53.74-2.35Q54.44-2.25 54.74-2.25L54.74-2.25Q56.99-2.25 58.49-4.25L58.49-4.25Q59.54-5.7 59.54-7.2L59.54-7.2Q59.54-8.2 59.04-9.15L59.04-9.15Q57.94-11.1 56.34-13.45L56.34-13.45Q55.29-15 54.44-16.4L54.44-16.4Q53.44-18 53.44-19.95L53.44-19.95Q53.44-21.75 54.47-23.13 55.49-24.5 57.49-24.85L57.49-24.85 59.09-25.15Q61.69-25.65 62.99-25.65L62.99-25.65Q65.14-25.65 66.8-24.65L66.8-24.65Q67.14-24.4 67.52-23.78 67.89-23.15 68.09-22.8L68.09-22.8Q67.75-22.65 67.12-22.33 66.5-22 66.05-21.95L66.05-21.95Q65.34-21.85 63.94-21.85L63.94-21.85Q62.59-21.85 61.89-21.8L61.89-21.8Q60.29-21.65 59.37-20.73 58.44-19.8 58.44-18.5L58.44-18.5Q58.44-17.5 59.04-16.45L59.04-16.45Q60.39-14.2 62.79-11.3L62.79-11.3Q64.59-9.05 64.59-6.65L64.59-6.65Q64.59-5.35 63.99-3.9L63.99-3.9Q61.94 1.1 56.89 1.1L56.89 1.1ZM86.79-5.1Q85.29-3.4 83.74-2.43 82.19-1.45 80.29-1.45L80.29-1.45Q79.89-1.45 79.19-1.55L79.19-1.55 78.19-1.5Q71.89-1.45 68.99-7.5L68.99-7.5Q68.34-8.9 68.34-10.85L68.34-10.85Q68.34-12.55 68.84-14.1 69.34-15.65 70.24-16.65L70.24-16.65 71.19-17.8Q71.89-18.7 72.29-19.05L72.29-19.05Q74.04-20.75 76.94-20.75L76.94-20.75Q78.44-20.75 79.89-20.25 81.34-19.75 82.44-18.9L82.44-18.9Q82.64-18.75 82.84-18.28 83.04-17.8 83.04-17.5L83.04-17.5Q83.04-17.1 82.44-16.63 81.84-16.15 81.34-16.2L81.34-16.2Q77.94-16.6 75.89-14.58 73.84-12.55 73.84-9.05L73.84-9.05Q73.84-6.75 74.82-5.8 75.79-4.85 78.04-4.85L78.04-4.85Q79.44-4.85 80.69-5.43 81.94-6 83.59-7.05L83.59-7.05 84.54-7.65Q85.04-7.9 85.87-7.98 86.69-8.05 87.14-8.1L87.14-8.1Q87.09-7.65 87.12-7.23 87.14-6.8 87.14-6.55L87.14-6.55Q87.14-5.45 86.79-5.1L86.79-5.1ZM102.59-3.35Q101.04-2.4 99.04-2.4L99.04-2.4Q96.84-2.4 94.81-3.53 92.79-4.65 91.59-6.75 90.39-8.85 90.59-11.55L90.59-11.55 90.84-12.75Q91.14-14.55 91.34-15.4L91.34-15.4Q91.79-17.25 93.14-18 94.49-18.75 96.74-19.2L96.74-19.2Q98.19-19.5 99.59-19.5L99.59-19.5Q103.99-19.5 106.99-16.55L106.99-16.55Q108.59-14.95 108.59-12.65L108.59-12.65Q108.59-10.4 106.94-7.8L106.94-7.8Q105.04-4.85 102.59-3.35L102.59-3.35ZM98.39-16.95Q97.59-15 96.69-12.1L96.69-12.1 96.19-10.6 96.54-10.45Q96.54-10.1 96.56-9.38 96.59-8.65 96.74-8.15L96.74-8.15Q97.29-6.6 97.99-6.25L97.99-6.25Q98.29-6.1 98.87-6.4 99.44-6.7 99.89-7.1L99.89-7.1Q100.59-7.7 102.14-9.6L102.14-9.6Q103.29-10.9 103.29-12.7L103.29-12.7Q103.29-14.25 102.42-15.5 101.54-16.75 99.99-17.2L99.99-17.2Q99.84-17.25 99.44-17.25L99.44-17.25Q98.49-17.25 98.39-16.95L98.39-16.95ZM126.49-15.35Q126.44-15.7 126.44-16.5L126.44-16.5Q126.44-18.45 126.84-20.3 127.24-22.15 127.99-24.35L127.99-24.35Q128.74-26.4 130.84-28.45 132.94-30.5 135.54-31.83 138.14-33.15 140.24-33.15L140.24-33.15Q142.39-33.15 144.44-31.58 146.49-30 147.04-28L147.04-28Q147.14-27.4 147.14-27.2L147.14-27.2Q147.14-26.45 146.71-26.08 146.29-25.7 145.59-25.7L145.59-25.7Q145.04-25.7 144.74-25.75L144.74-25.75Q144.59-25.75 144.29-25.95L144.29-25.95Q142.84-26.75 141.49-26.75L141.49-26.75Q138.94-26.75 136.44-24.1L136.44-24.1Q132.19-19.65 132.19-13.5L132.19-13.5Q132.19-11.3 132.64-9.25L132.64-9.25Q133.14-6.95 134.41-5.88 135.69-4.8 137.84-4.8L137.84-4.8Q138.59-4.8 139.49-4.95L139.49-4.95Q142.64-5.35 145.29-6.88 147.94-8.4 151.14-10.95L151.14-10.95Q151.89-11.55 153.79-13.45L153.79-13.45 154.79-14.5Q155.44-15.15 155.91-15.43 156.39-15.7 156.79-15.7L156.79-15.7Q157.44-15.7 158.39-15.05L158.39-15.05Q159.44-14.3 159.44-13.15L159.44-13.15Q159.44-12.35 158.89-11.65L158.89-11.65Q158.69-11.3 157.79-10.03 156.89-8.75 156.04-7.75 155.19-6.75 154.34-6.05L154.34-6.05Q149.74-2 144.74-0.6L144.74-0.6Q142.54 0 140.34 0L140.34 0Q136.29 0 133.16-2.05 130.04-4.1 128.29-7.43 126.54-10.75 126.49-14.35L126.49-14.35 126.49-15.35ZM171.88-3.35Q170.33-2.4 168.33-2.4L168.33-2.4Q166.13-2.4 164.11-3.53 162.08-4.65 160.88-6.75 159.68-8.85 159.88-11.55L159.88-11.55 160.13-12.75Q160.43-14.55 160.63-15.4L160.63-15.4Q161.08-17.25 162.43-18 163.78-18.75 166.03-19.2L166.03-19.2Q167.48-19.5 168.88-19.5L168.88-19.5Q173.28-19.5 176.28-16.55L176.28-16.55Q177.88-14.95 177.88-12.65L177.88-12.65Q177.88-10.4 176.23-7.8L176.23-7.8Q174.33-4.85 171.88-3.35L171.88-3.35ZM167.68-16.95Q166.88-15 165.98-12.1L165.98-12.1 165.48-10.6 165.83-10.45Q165.83-10.1 165.86-9.38 165.88-8.65 166.03-8.15L166.03-8.15Q166.58-6.6 167.28-6.25L167.28-6.25Q167.58-6.1 168.16-6.4 168.73-6.7 169.18-7.1L169.18-7.1Q169.88-7.7 171.43-9.6L171.43-9.6Q172.58-10.9 172.58-12.7L172.58-12.7Q172.58-14.25 171.71-15.5 170.83-16.75 169.28-17.2L169.28-17.2Q169.13-17.25 168.73-17.25L168.73-17.25Q167.78-17.25 167.68-16.95L167.68-16.95ZM188.38-21.2Q188.53-20.7 188.43-19.65L188.43-19.65 187.83-13.75Q188.08-13.95 188.58-15.18 189.08-16.4 189.53-17.18 189.98-17.95 190.23-18.2L190.23-18.2Q192.58-20.45 195.53-20.9 198.48-21.35 202.03-21.3L202.03-21.3Q202.38-21.3 202.81-21.03 203.23-20.75 203.23-20.58 203.23-20.4 202.93-20.03 202.63-19.65 202.38-19.55L202.38-19.55Q199.38-18.55 197.1-17.25 194.83-15.95 193.18-13.85L193.18-13.85Q189.28-8.9 188.68-3.65L188.68-3.65Q188.53-2.25 187.83-1.78 187.13-1.3 185.88-1.3L185.88-1.3Q184.48-1.3 183.38-2.5 182.28-3.7 182.28-5.15L182.28-5.15Q182.33-10.45 182.33-21.05L182.33-21.05Q182.33-22.5 182.98-23.08 183.63-23.65 185.33-23.65L185.33-23.65Q186.58-23.65 187.46-22.95 188.33-22.25 188.38-21.2L188.38-21.2ZM211.88-21.2Q212.03-20.7 211.93-19.65L211.93-19.65 211.33-13.75Q211.58-13.95 212.08-15.18 212.58-16.4 213.03-17.18 213.48-17.95 213.73-18.2L213.73-18.2Q216.08-20.45 219.03-20.9 221.98-21.35 225.53-21.3L225.53-21.3Q225.88-21.3 226.3-21.03 226.73-20.75 226.73-20.58 226.73-20.4 226.43-20.03 226.13-19.65 225.88-19.55L225.88-19.55Q222.88-18.55 220.6-17.25 218.33-15.95 216.68-13.85L216.68-13.85Q212.78-8.9 212.18-3.65L212.18-3.65Q212.03-2.25 211.33-1.78 210.63-1.3 209.38-1.3L209.38-1.3Q207.98-1.3 206.88-2.5 205.78-3.7 205.78-5.15L205.78-5.15Q205.83-10.45 205.83-21.05L205.83-21.05Q205.83-22.5 206.48-23.08 207.13-23.65 208.83-23.65L208.83-23.65Q210.08-23.65 210.95-22.95 211.83-22.25 211.88-21.2L211.88-21.2ZM236.38-7.8Q235.88-7.5 234.93-7.5L234.93-7.5Q234.58-7.5 234.08-7.55 233.58-7.6 233.22-7.55L233.22-7.55Q233.63-5.9 235.13-4.88 236.63-3.85 238.47-3.85L238.47-3.85Q240.08-3.85 241.33-4.55L241.33-4.55Q243.18-5.5 244.53-6.8L244.53-6.8Q245.48-7.75 246.33-7.75L246.33-7.75Q246.88-7.75 247.28-7.2L247.28-7.2Q247.68-6.55 247.68-5.6L247.68-5.6Q247.68-4.6 247.28-4.05L247.28-4.05Q245.98-2.05 243.9-1.3 241.83-0.55 239.08-0.55L239.08-0.55Q236.22-0.55 233.58-1.8 230.93-3.05 229.05-5.23 227.18-7.4 226.58-10.05L226.58-10.05Q226.18-11.6 226.18-13.1L226.18-13.1Q226.18-15.45 227.5-16.9 228.83-18.35 231.78-19.65L231.78-19.65Q234.47-20.8 236.78-20.8L236.78-20.8Q238.43-20.8 239.97-20.3L239.97-20.3Q244.78-18.8 244.78-16.2L244.78-16.2Q244.78-14.55 242.83-12.2L242.83-12.2Q241.88-11.1 240.58-10.25 239.28-9.4 238.05-8.72 236.83-8.05 236.38-7.8L236.38-7.8ZM238.47-17.05Q238.43-17.3 238.1-17.48 237.78-17.65 237.72-17.7L237.72-17.7Q236.38-17.8 234.97-16.93 233.58-16.05 232.65-14.7 231.72-13.35 231.72-12.1L231.72-12.1 231.78-11.7Q231.83-11.5 232.3-11.2 232.78-10.9 232.88-11L232.88-11Q236.43-13.65 238.22-15.25L238.22-15.25Q238.53-15.55 238.53-16.35L238.53-16.35Q238.53-16.85 238.47-17.05L238.47-17.05ZM265.92-2.55Q265.47-2.75 265.02-2.75L265.02-2.75Q264.57-2.75 264.25-2.53 263.92-2.3 263.52-1.85L263.52-1.85Q262.92-1.25 262.27-0.85L262.27-0.85Q261.67-0.5 260.07-0.2L260.07-0.2Q259.37-0.1 258.92-0.1L258.92-0.1Q256.82-0.1 254.55-1.03 252.27-1.95 251.32-3.25L251.32-3.25Q250.32-4.65 250.37-6.25L250.37-6.25Q250.42-8.65 252.37-11.05L252.37-11.05Q254.27-13.35 255.85-14.3 257.42-15.25 260.17-15.5L260.17-15.5Q260.77-15.5 261.9-15.7 263.02-15.9 263.02-16.25L263.02-16.25Q263.02-16.95 262.4-17.53 261.77-18.1 259.87-18.1L259.87-18.1Q259.17-18.1 257.77-18L257.77-18Q256.37-17.9 255.82-17.9L255.82-17.9Q254.12-17.9 253.37-18.45L253.37-18.45Q253.17-18.55 253.17-19.4L253.17-19.4Q253.17-20.9 254.22-21.3L254.22-21.3Q256.37-22.1 258.67-22.15L258.67-22.15Q261.57-22.15 264.05-20.88 266.52-19.6 267.67-17.7L267.67-17.7Q268.82-15.8 269.17-12.45L269.17-12.45Q269.57-8.7 269.57-2.9L269.57-2.9Q269.57-1.3 269.12-1.05L269.12-1.05Q268.72-0.8 268.37-0.8L268.37-0.8Q267.92-0.8 267.55-1.07 267.17-1.35 266.72-1.85L266.72-1.85Q266.27-2.4 265.92-2.55L265.92-2.55ZM258.02-3.15Q260.37-3.85 262.62-5.4L262.62-5.4Q263.12-5.75 263.52-6.3 263.92-6.85 264.02-7L264.02-7Q264.12-7.15 264.2-7.88 264.27-8.6 264.22-9.05L264.22-9.05Q264.17-9.2 264.05-9.85 263.92-10.5 263.67-11L263.67-11Q263.42-11.4 262.87-11.75 262.32-12.1 261.87-12.05L261.87-12.05Q260.92-12 259.82-11.35 258.72-10.7 257.77-9.6L257.77-9.6Q256.82-8.45 256.3-7.28 255.77-6.1 255.77-5.1L255.77-5.1Q255.87-3.75 256.52-3.3L256.52-3.3Q256.87-3.05 257.37-3.05L257.37-3.05Q257.77-3.05 258.02-3.15L258.02-3.15Z" opacity="1" transform="matrix(1,0,0,1,0,0)" fill="#000000" class="slogan-text-1" data-fill-palette-color="secondary" id="text-1"></path></svg></g></svg></g></svg></g></svg></g><g></g></svg></g><defs></defs></svg><rect width="81.4812490797546" height="55.91616470196351" fill="none" stroke="none" visibility="hidden"></rect></g></svg></g></svg>